<svg  viewBox="0 0 720 596" fill="none" xmlns="http://www.w3.org/2000/svg">
<path d="M213.143 256.714V260.286C213.143 266.203 208.346 271 202.429 271H116.714C110.797 271 106 266.203 106 260.286V203.143C106 197.225 110.797 192.429 116.714 192.429H120.286V203.143H118.054C117.698 203.143 117.358 203.284 117.107 203.535C116.855 203.786 116.714 204.127 116.714 204.482V258.946C116.714 259.302 116.855 259.642 117.107 259.893C117.358 260.145 117.698 260.286 118.054 260.286H201.089C201.444 260.286 201.785 260.145 202.036 259.893C202.287 259.642 202.429 259.302 202.429 258.946V256.714H213.143ZM222.518 181.714H139.482C139.127 181.714 138.786 181.855 138.535 182.107C138.284 182.358 138.143 182.698 138.143 183.054V237.518C138.143 237.873 138.284 238.214 138.535 238.465C138.786 238.716 139.127 238.857 139.482 238.857H222.518C222.873 238.857 223.214 238.716 223.465 238.465C223.716 238.214 223.857 237.873 223.857 237.518V183.054C223.857 182.698 223.716 182.358 223.465 182.107C223.214 181.855 222.873 181.714 222.518 181.714ZM223.857 171C229.775 171 234.571 175.797 234.571 181.714V238.857C234.571 244.775 229.775 249.571 223.857 249.571H138.143C132.225 249.571 127.429 244.775 127.429 238.857V181.714C127.429 175.797 132.225 171 138.143 171H223.857ZM164.929 196C164.929 200.931 160.931 204.929 156 204.929C151.069 204.929 147.071 200.931 147.071 196C147.071 191.069 151.069 187.071 156 187.071C160.931 187.071 164.929 191.069 164.929 196ZM148.857 217.429L157.677 208.608C158.723 207.562 160.419 207.562 161.466 208.608L170.286 217.429L193.392 194.323C194.438 193.277 196.134 193.277 197.18 194.323L213.143 210.286V228.143H148.857V217.429Z" fill="#DADADA"/>
<path d="M383.957 318.031C380.15 313.194 373.669 311.792 368.357 314.301C365.403 311.238 361.291 309.909 357.304 310.468V296.086C357.304 288.87 351.496 283 344.357 283C337.219 283 331.411 288.87 331.411 296.086V327.556C327.522 326.109 322.959 326.562 319.285 329.289C313.552 333.546 312.294 341.659 316.443 347.483L337.869 377.561C340.295 380.967 344.223 383 348.375 383H383.197C389.213 383 394.441 378.801 395.805 372.883L401.163 349.641C401.387 348.667 401.5 347.671 401.5 346.672V330.266C401.5 321.116 392.394 314.783 383.957 318.031ZM329.817 337.628L335.115 345.066C336.872 347.532 340.786 346.294 340.786 343.253V296.086C340.786 291.18 347.928 291.172 347.928 296.086V330.266C347.928 331.991 349.327 333.391 351.053 333.391H352.393C354.119 333.391 355.518 331.991 355.518 330.266V323.43C355.518 318.523 362.66 318.516 362.66 323.43V330.266C362.66 331.991 364.059 333.391 365.785 333.391H367.125C368.851 333.391 370.25 331.991 370.25 330.266V326.164C370.25 321.258 377.393 321.25 377.393 326.164V330.266C377.393 331.991 378.792 333.391 380.518 333.391H381.857C383.583 333.391 384.982 331.991 384.982 330.266C384.982 325.359 392.125 325.352 392.125 330.266V346.672C392.125 346.963 392.092 347.253 392.027 347.536L386.669 370.778C386.283 372.454 384.855 373.625 383.196 373.625H348.375C347.248 373.625 346.175 373.063 345.505 372.122L324.076 342.044C321.263 338.094 327.005 333.681 329.817 337.628V337.628ZM348.403 361.125V342.375C348.403 340.649 349.627 339.25 351.137 339.25H352.309C353.819 339.25 355.044 340.649 355.044 342.375V361.125C355.044 362.851 353.819 364.25 352.309 364.25H351.137C349.627 364.25 348.403 362.851 348.403 361.125ZM363.135 361.125V342.375C363.135 340.649 364.359 339.25 365.869 339.25H367.041C368.551 339.25 369.776 340.649 369.776 342.375V361.125C369.776 362.851 368.551 364.25 367.041 364.25H365.869C364.359 364.25 363.135 362.851 363.135 361.125V361.125ZM377.867 361.125V342.375C377.867 340.649 379.091 339.25 380.602 339.25H381.773C383.284 339.25 384.508 340.649 384.508 342.375V361.125C384.508 362.851 383.284 364.25 381.773 364.25H380.602C379.091 364.25 377.867 362.851 377.867 361.125Z" fill="#DADADA"/>
<path d="M349.482 163.903L337.567 160.445C336.317 160.094 335.613 158.785 335.965 157.535L362.627 65.6921C362.979 64.442 364.287 63.7388 365.538 64.0904L377.452 67.5477C378.703 67.8993 379.406 69.208 379.054 70.4581L352.392 162.301C352.021 163.551 350.732 164.274 349.482 163.903V163.903ZM327.214 141.987L335.711 132.924C336.61 131.967 336.551 130.443 335.555 129.564L317.858 113.997L335.555 98.4289C336.551 97.55 336.629 96.0264 335.711 95.0693L327.214 86.0061C326.335 85.0685 324.851 85.0099 323.894 85.9084L295.747 112.278C294.751 113.196 294.751 114.778 295.747 115.696L323.894 142.085C324.851 142.983 326.335 142.944 327.214 141.987V141.987ZM391.125 142.104L419.272 115.715C420.268 114.797 420.268 113.215 419.272 112.297L391.125 85.8889C390.188 85.0099 388.703 85.049 387.805 85.9866L379.308 95.0498C378.41 96.0069 378.468 97.5304 379.464 98.4094L397.161 113.997L379.464 129.564C378.468 130.443 378.39 131.967 379.308 132.924L387.805 141.987C388.684 142.944 390.168 142.983 391.125 142.104V142.104Z" fill="#DADADA"/>
<path d="M90.125 23H46.375C41.1992 23 37 27.1992 37 32.375V113.625C37 118.801 41.1992 123 46.375 123H90.125C95.3008 123 99.5 118.801 99.5 113.625V32.375C99.5 27.1992 95.3008 23 90.125 23ZM68.25 116.75C64.793 116.75 62 113.957 62 110.5C62 107.043 64.793 104.25 68.25 104.25C71.707 104.25 74.5 107.043 74.5 110.5C74.5 113.957 71.707 116.75 68.25 116.75ZM90.125 95.6562C90.125 96.9453 89.0703 98 87.7812 98H48.7188C47.4297 98 46.375 96.9453 46.375 95.6562V34.7188C46.375 33.4297 47.4297 32.375 48.7188 32.375H87.7812C89.0703 32.375 90.125 33.4297 90.125 34.7188V95.6562Z" fill="#DADADA"/>
<path d="M584.833 171H476.5C469.596 171 464 176.596 464 183.5V258.5C464 265.404 469.596 271 476.5 271H584.833C591.737 271 597.333 265.404 597.333 258.5V183.5C597.333 176.596 591.737 171 584.833 171ZM584.833 183.5V194.126C578.994 198.881 569.685 206.275 549.785 221.858C545.399 225.308 536.711 233.596 530.667 233.499C524.623 233.597 515.933 225.307 511.549 221.858C491.651 206.277 482.34 198.882 476.5 194.126V183.5H584.833ZM476.5 258.5V210.166C482.467 214.919 490.929 221.589 503.828 231.689C509.52 236.169 519.487 246.06 530.667 246C541.791 246.06 551.633 236.312 557.503 231.691C570.401 221.591 578.866 214.92 584.833 210.166V258.5H476.5Z" fill="#DADADA"/>
<path d="M137.843 398.645C134.919 380.641 128.024 368 120 368C111.976 368 105.081 380.641 102.157 398.645H137.843ZM100.645 418C100.645 422.476 100.887 426.77 101.31 430.903H138.669C139.093 426.77 139.335 422.476 139.335 418C139.335 413.524 139.093 409.23 138.669 405.097H101.31C100.887 409.23 100.645 413.524 100.645 418ZM166.109 398.645C160.343 384.956 148.669 374.371 134.254 370.097C139.173 376.911 142.56 387.173 144.335 398.645H166.109ZM105.726 370.097C91.3306 374.371 79.6371 384.956 73.8911 398.645H95.6653C97.4194 387.173 100.806 376.911 105.726 370.097V370.097ZM168.266 405.097H145.141C145.565 409.331 145.806 413.665 145.806 418C145.806 422.335 145.565 426.669 145.141 430.903H168.246C169.355 426.77 169.98 422.476 169.98 418C169.98 413.524 169.355 409.23 168.266 405.097ZM94.1935 418C94.1935 413.665 94.4355 409.331 94.8589 405.097H71.7339C70.6452 409.23 70 413.524 70 418C70 422.476 70.6452 426.77 71.7339 430.903H94.8387C94.4355 426.669 94.1935 422.335 94.1935 418V418ZM102.157 437.355C105.081 455.359 111.976 468 120 468C128.024 468 134.919 455.359 137.843 437.355H102.157ZM134.274 465.903C148.669 461.629 160.363 451.044 166.129 437.355H144.355C142.581 448.827 139.194 459.089 134.274 465.903ZM73.8911 437.355C79.6573 451.044 91.3306 461.629 105.746 465.903C100.827 459.089 97.4395 448.827 95.6653 437.355H73.8911V437.355Z" fill="#DADADA"/>
<path d="M402 496.125C402 487.492 395.008 480.5 386.375 480.5C377.742 480.5 370.75 487.492 370.75 496.125C370.75 503.234 375.496 509.23 381.98 511.125C381.863 514.27 381.16 516.691 379.832 518.332C376.824 522.082 370.203 522.707 363.191 523.352C357.684 523.859 351.98 524.406 347.312 526.652V498.527C353.66 496.535 358.25 490.617 358.25 483.625C358.25 474.992 351.258 468 342.625 468C333.992 468 327 474.992 327 483.625C327 490.617 331.59 496.535 337.938 498.527V537.453C331.59 539.465 327 545.383 327 552.375C327 561.008 333.992 568 342.625 568C351.258 568 358.25 561.008 358.25 552.375C358.25 545.734 354.109 540.051 348.25 537.805C348.855 536.789 349.773 535.891 351.16 535.188C354.324 533.586 359.051 533.156 364.07 532.688C372.313 531.926 381.648 531.047 387.156 524.211C389.891 520.812 391.277 516.437 391.375 510.949C397.547 508.84 402 503 402 496.125ZM342.625 480.5C344.344 480.5 345.75 481.906 345.75 483.625C345.75 485.344 344.344 486.75 342.625 486.75C340.906 486.75 339.5 485.344 339.5 483.625C339.5 481.906 340.906 480.5 342.625 480.5ZM342.625 555.5C340.906 555.5 339.5 554.094 339.5 552.375C339.5 550.656 340.906 549.25 342.625 549.25C344.344 549.25 345.75 550.656 345.75 552.375C345.75 554.094 344.344 555.5 342.625 555.5ZM386.375 493C388.094 493 389.5 494.406 389.5 496.125C389.5 497.844 388.094 499.25 386.375 499.25C384.656 499.25 383.25 497.844 383.25 496.125C383.25 494.406 384.656 493 386.375 493Z" fill="#DADADA"/>
<path d="M652.623 454.456L633.152 434.986C632.274 434.107 631.082 433.619 629.832 433.619H626.649C632.039 426.725 635.242 418.054 635.242 408.621C635.242 386.182 617.06 368 594.621 368C572.182 368 554 386.182 554 408.621C554 431.06 572.182 449.242 594.621 449.242C604.054 449.242 612.725 446.039 619.619 440.649V443.832C619.619 445.082 620.107 446.274 620.986 447.152L640.456 466.623C642.292 468.459 645.261 468.459 647.077 466.623L652.604 461.096C654.439 459.261 654.439 456.292 652.623 454.456ZM594.621 433.619C580.814 433.619 569.623 422.448 569.623 408.621C569.623 394.814 580.794 383.623 594.621 383.623C608.428 383.623 619.619 394.794 619.619 408.621C619.619 422.428 608.448 433.619 594.621 433.619Z" fill="#DADADA"/>
<path d="M677.125 23H583.375C578.199 23 574 27.1992 574 32.375V94.875C574 100.051 578.199 104.25 583.375 104.25H620.875L617.75 113.625H603.688C601.09 113.625 599 115.715 599 118.312C599 120.91 601.09 123 603.688 123H656.812C659.41 123 661.5 120.91 661.5 118.312C661.5 115.715 659.41 113.625 656.812 113.625H642.75L639.625 104.25H677.125C682.301 104.25 686.5 100.051 686.5 94.875V32.375C686.5 27.1992 682.301 23 677.125 23ZM674 91.75H586.5V35.5H674V91.75Z" fill="#DADADA"/>
</svg>
