<svg width="767" height="517" viewBox="0 0 767 517" fill="none" xmlns="http://www.w3.org/2000/svg">
<g clip-path="url(#clip0)">
<g clip-path="url(#clip1)">
<rect x="377" width="389" height="427" rx="8" fill="white"/>
<path d="M545.567 159H451.567C450.241 158.998 448.97 158.471 448.033 157.534C447.096 156.596 446.568 155.326 446.567 154V60C446.568 58.6744 447.096 57.4035 448.033 56.4661C448.97 55.5288 450.241 55.0015 451.567 55H545.567C546.893 55.0015 548.163 55.5288 549.101 56.4661C550.038 57.4035 550.565 58.6744 550.567 60V154C550.565 155.326 550.038 156.596 549.101 157.534C548.163 158.471 546.893 158.998 545.567 159V159ZM451.567 57C450.772 57.0009 450.009 57.3172 449.447 57.8796C448.884 58.4421 448.568 59.2046 448.567 60V154C448.568 154.795 448.884 155.558 449.447 156.12C450.009 156.683 450.772 156.999 451.567 157H545.567C546.362 156.999 547.125 156.683 547.687 156.12C548.25 155.558 548.566 154.795 548.567 154V60C548.566 59.2046 548.25 58.4421 547.687 57.8796C547.125 57.3172 546.362 57.0009 545.567 57H451.567Z" fill="#F2F2F2"/>
<path d="M518.567 170.5H424.567C423.374 170.499 422.23 170.024 421.386 169.18C420.543 168.337 420.068 167.193 420.067 166V72C420.068 70.8069 420.543 69.6631 421.386 68.8195C422.23 67.9759 423.374 67.5013 424.567 67.5H518.567C519.76 67.5013 520.904 67.9759 521.747 68.8195C522.591 69.6631 523.066 70.8069 523.067 72V166C523.066 167.193 522.591 168.337 521.747 169.181C520.904 170.024 519.76 170.499 518.567 170.5V170.5Z" fill="#3e73cb"/>
<path d="M718.567 216.5H424.567C423.373 216.5 422.229 216.026 421.385 215.182C420.541 214.338 420.067 213.193 420.067 212C420.067 210.807 420.541 209.662 421.385 208.818C422.229 207.974 423.373 207.5 424.567 207.5H718.567C719.76 207.5 720.905 207.974 721.749 208.818C722.593 209.662 723.067 210.807 723.067 212C723.067 213.193 722.593 214.338 721.749 215.182C720.905 216.026 719.76 216.5 718.567 216.5V216.5Z" fill="#CCCCCC"/>
<path d="M647.567 247.5H424.567C423.373 247.5 422.229 247.026 421.385 246.182C420.541 245.338 420.067 244.193 420.067 243C420.067 241.807 420.541 240.662 421.385 239.818C422.229 238.974 423.373 238.5 424.567 238.5H647.567C648.76 238.5 649.905 238.974 650.749 239.818C651.593 240.662 652.067 241.807 652.067 243C652.067 244.193 651.593 245.338 650.749 246.182C649.905 247.026 648.76 247.5 647.567 247.5V247.5Z" fill="#CCCCCC"/>
<path d="M717.567 102.5H587.567C586.373 102.5 585.229 102.026 584.385 101.182C583.541 100.338 583.067 99.1935 583.067 98C583.067 96.8065 583.541 95.6619 584.385 94.818C585.229 93.9741 586.373 93.5 587.567 93.5H717.567C718.76 93.5 719.905 93.9741 720.749 94.818C721.593 95.6619 722.067 96.8065 722.067 98C722.067 99.1935 721.593 100.338 720.749 101.182C719.905 102.026 718.76 102.5 717.567 102.5Z" fill="#CCCCCC"/>
<path d="M685.123 133.5H587.567C586.373 133.5 585.229 133.026 584.385 132.182C583.541 131.338 583.067 130.193 583.067 129C583.067 127.807 583.541 126.662 584.385 125.818C585.229 124.974 586.373 124.5 587.567 124.5H685.123C686.317 124.5 687.461 124.974 688.305 125.818C689.149 126.662 689.623 127.807 689.623 129C689.623 130.193 689.149 131.338 688.305 132.182C687.461 133.026 686.317 133.5 685.123 133.5V133.5Z" fill="#CCCCCC"/>
<path d="M718.567 278.5H424.567C423.373 278.5 422.229 278.026 421.385 277.182C420.541 276.338 420.067 275.193 420.067 274C420.067 272.807 420.541 271.662 421.385 270.818C422.229 269.974 423.373 269.5 424.567 269.5H718.567C719.76 269.5 720.905 269.974 721.749 270.818C722.593 271.662 723.067 272.807 723.067 274C723.067 275.193 722.593 276.338 721.749 277.182C720.905 278.026 719.76 278.5 718.567 278.5V278.5Z" fill="#CCCCCC"/>
<path d="M647.567 309.5H424.567C423.373 309.5 422.229 309.026 421.385 308.182C420.541 307.338 420.067 306.193 420.067 305C420.067 303.807 420.541 302.662 421.385 301.818C422.229 300.974 423.373 300.5 424.567 300.5H647.567C648.76 300.5 649.905 300.974 650.749 301.818C651.593 302.662 652.067 303.807 652.067 305C652.067 306.193 651.593 307.338 650.749 308.182C649.905 309.026 648.76 309.5 647.567 309.5V309.5Z" fill="#CCCCCC"/>
<path d="M718.567 340.5H424.567C423.373 340.5 422.229 340.026 421.385 339.182C420.541 338.338 420.067 337.193 420.067 336C420.067 334.807 420.541 333.662 421.385 332.818C422.229 331.974 423.373 331.5 424.567 331.5H718.567C719.76 331.5 720.905 331.974 721.749 332.818C722.593 333.662 723.067 334.807 723.067 336C723.067 337.193 722.593 338.338 721.749 339.182C720.905 340.026 719.76 340.5 718.567 340.5V340.5Z" fill="#CCCCCC"/>
<path d="M718.567 371.5H424.567C423.373 371.5 422.229 371.026 421.385 370.182C420.541 369.338 420.067 368.193 420.067 367C420.067 365.807 420.541 364.662 421.385 363.818C422.229 362.974 423.373 362.5 424.567 362.5H718.567C719.76 362.5 720.905 362.974 721.749 363.818C722.593 364.662 723.067 365.807 723.067 367C723.067 368.193 722.593 369.338 721.749 370.182C720.905 371.026 719.76 371.5 718.567 371.5V371.5Z" fill="#CCCCCC"/>
<path d="M761.067 427H382.067C380.741 426.998 379.47 426.471 378.533 425.534C377.596 424.597 377.068 423.326 377.067 422V5C377.068 3.67438 377.596 2.40349 378.533 1.46614C379.47 0.528787 380.741 0.00151655 382.067 0H761.067C762.393 0.00151655 763.663 0.528787 764.601 1.46614C765.538 2.40349 766.065 3.67438 766.067 5V422C766.065 423.326 765.538 424.597 764.601 425.534C763.663 426.471 762.393 426.998 761.067 427V427ZM382.067 2C381.272 2.00087 380.509 2.31722 379.947 2.87964C379.384 3.44206 379.068 4.20462 379.067 5V422C379.068 422.795 379.384 423.558 379.947 424.12C380.509 424.683 381.272 424.999 382.067 425H761.067C761.862 424.999 762.625 424.683 763.187 424.12C763.75 423.558 764.066 422.795 764.067 422V5C764.066 4.20462 763.75 3.44206 763.187 2.87964C762.625 2.31722 761.862 2.00087 761.067 2H382.067Z" fill="#3F3D56"/>
</g>
<path d="M230.335 504.891H242.595L248.427 457.603L230.333 457.604L230.335 504.891Z" fill="#A0616A"/>
<path d="M227.208 500.888L251.352 500.887H251.353C255.433 500.888 259.347 502.509 262.232 505.394C265.118 508.28 266.739 512.193 266.739 516.274V516.774L227.208 516.775L227.208 500.888Z" fill="#2F2E41"/>
<path d="M134.876 499.584L146.998 501.416L159.834 455.532L143.943 452.828L134.876 499.584Z" fill="#A0616A"/>
<path d="M132.382 495.159L156.255 498.767L156.256 498.767C160.291 499.378 163.918 501.566 166.339 504.85C168.761 508.134 169.779 512.246 169.169 516.281L169.095 516.775L130.008 510.867L132.382 495.159Z" fill="#2F2E41"/>
<path d="M172.676 270.543L186.289 274.11L185.383 296.179L185.271 336.361C186.612 337.288 187.64 338.601 188.219 340.126C188.797 341.65 188.9 343.314 188.512 344.898C188.124 346.482 187.265 347.911 186.047 348.996C184.83 350.081 183.312 350.77 181.694 350.974C180.076 351.177 178.435 350.884 176.987 350.134C175.539 349.384 174.353 348.213 173.585 346.774C172.818 345.335 172.505 343.697 172.689 342.077C172.872 340.457 173.543 338.931 174.613 337.7L170.43 297.371L172.676 270.543Z" fill="#A0616A"/>
<path d="M170.307 245.265C170.382 243.132 171.07 241.066 172.288 239.313C173.506 237.561 175.203 236.196 177.176 235.383C179.023 234.556 181.071 234.287 183.068 234.609C185.066 234.93 186.927 235.828 188.421 237.191C189.495 238.151 190.347 239.334 190.918 240.657C191.488 241.98 191.763 243.411 191.723 244.852C191.759 257.78 188.84 276.625 188.811 276.813L188.764 277.113L168.867 283.813L170.307 245.265Z" fill="#3e73cb"/>
<path d="M481.496 388.311H266.496C265.17 388.309 263.9 387.782 262.962 386.845C262.025 385.908 261.498 384.637 261.496 383.311V250.311C261.498 248.985 262.025 247.715 262.962 246.777C263.9 245.84 265.17 245.313 266.496 245.311H481.496C482.822 245.313 484.093 245.84 485.03 246.777C485.967 247.715 486.495 248.985 486.496 250.311V383.311C486.495 384.637 485.967 385.908 485.03 386.845C484.093 387.782 482.822 388.309 481.496 388.311Z" fill="white"/>
<path d="M438.996 305.811H308.996C307.803 305.811 306.658 305.337 305.814 304.493C304.97 303.649 304.496 302.505 304.496 301.311C304.496 300.118 304.97 298.973 305.814 298.129C306.658 297.285 307.803 296.811 308.996 296.811H438.996C440.19 296.811 441.334 297.285 442.178 298.129C443.022 298.973 443.496 300.118 443.496 301.311C443.496 302.505 443.022 303.649 442.178 304.493C441.334 305.337 440.19 305.811 438.996 305.811V305.811Z" fill="#CCCCCC"/>
<path d="M438.996 336.811H308.996C307.803 336.811 306.658 336.337 305.814 335.493C304.97 334.649 304.496 333.505 304.496 332.311C304.496 331.118 304.97 329.973 305.814 329.129C306.658 328.285 307.803 327.811 308.996 327.811H438.996C440.19 327.811 441.334 328.285 442.178 329.129C443.022 329.973 443.496 331.118 443.496 332.311C443.496 333.505 443.022 334.649 442.178 335.493C441.334 336.337 440.19 336.811 438.996 336.811Z" fill="#CCCCCC"/>
<path d="M481.496 388.311H266.496C265.17 388.309 263.9 387.782 262.962 386.845C262.025 385.908 261.498 384.637 261.496 383.311V250.311C261.498 248.985 262.025 247.715 262.962 246.777C263.9 245.84 265.17 245.313 266.496 245.311H481.496C482.822 245.313 484.093 245.84 485.03 246.777C485.967 247.715 486.495 248.985 486.496 250.311V383.311C486.495 384.637 485.967 385.908 485.03 386.845C484.093 387.782 482.822 388.309 481.496 388.311ZM266.496 247.311C265.701 247.312 264.938 247.628 264.376 248.191C263.813 248.753 263.497 249.516 263.496 250.311V383.311C263.497 384.106 263.813 384.869 264.376 385.431C264.938 385.994 265.701 386.31 266.496 386.311H481.496C482.291 386.31 483.054 385.994 483.616 385.431C484.179 384.869 484.495 384.106 484.496 383.311V250.311C484.495 249.516 484.179 248.753 483.616 248.191C483.054 247.628 482.291 247.312 481.496 247.311H266.496Z" fill="#3F3D56"/>
<path d="M205.883 281.964L236.316 274.087L250.383 321.465L250.883 497.965L227.611 497.819L217.883 354.965L155.883 486.965L130.883 483.965L185.383 342.465C185.383 342.465 182.383 317.464 191.883 304.964L189.883 291.964L205.883 281.964Z" fill="#2F2E41"/>
<path d="M185.363 293.752C184.937 293.235 184.628 292.632 184.457 291.985C184.285 291.338 184.255 290.661 184.368 290.001L170.487 248.357C169.839 246.41 169.77 244.317 170.288 242.332C170.807 240.347 171.891 238.555 173.409 237.174L179.435 231.696L183.519 215.361L206.99 221.099L205.056 228.834L215.679 226.903L238.053 276.735L191.285 295.429L188.982 295.465C188.289 295.466 187.605 295.313 186.979 295.017C186.353 294.72 185.801 294.288 185.363 293.752V293.752Z" fill="#3e73cb"/>
<path d="M217.941 258.591L231.352 254.329L242.383 273.465L263.767 307.484C265.396 307.551 266.966 308.111 268.27 309.09C269.574 310.069 270.55 311.421 271.069 312.967C271.588 314.513 271.626 316.18 271.177 317.747C270.728 319.315 269.813 320.709 268.555 321.746C267.296 322.783 265.752 323.413 264.128 323.553C262.503 323.693 260.874 323.337 259.457 322.531C258.039 321.725 256.899 320.508 256.188 319.041C255.477 317.573 255.229 315.924 255.475 314.313L230.383 282.465L217.941 258.591Z" fill="#A0616A"/>
<path d="M202.426 238.492C201.349 236.65 200.826 234.536 200.919 232.404C201.012 230.272 201.717 228.212 202.949 226.47C204.069 224.785 205.656 223.463 207.516 222.667C209.376 221.87 211.428 221.634 213.42 221.987C214.841 222.224 216.193 222.768 217.382 223.582C218.571 224.395 219.569 225.458 220.305 226.696C227.246 237.603 234.852 255.091 234.928 255.266L235.049 255.544L221.815 271.842L202.426 238.492Z" fill="#3e73cb"/>
<path d="M200.884 212.322C211.184 212.322 219.533 203.972 219.533 193.673C219.533 183.373 211.184 175.024 200.884 175.024C190.585 175.024 182.235 183.373 182.235 193.673C182.235 203.972 190.585 212.322 200.884 212.322Z" fill="#A0616A"/>
<path d="M167.928 185.807C177.849 185.807 185.891 177.764 185.891 167.843C185.891 157.922 177.849 149.879 167.928 149.879C158.007 149.879 149.964 157.922 149.964 167.843C149.964 177.764 158.007 185.807 167.928 185.807Z" fill="#2F2E41"/>
<path d="M152.433 182.718C154.758 184.398 157.452 185.498 160.289 185.924C163.126 186.35 166.024 186.09 168.74 185.166C171.456 184.243 173.911 182.682 175.9 180.615C177.89 178.548 179.355 176.035 180.174 173.285C179.864 175.749 179.047 178.122 177.773 180.254C176.5 182.387 174.799 184.232 172.777 185.673C170.754 187.114 168.455 188.121 166.024 188.629C163.594 189.137 161.084 189.135 158.654 188.624C156.223 188.114 153.926 187.104 151.905 185.661C149.885 184.217 148.185 182.37 146.915 180.236C145.644 178.103 144.83 175.729 144.523 173.264C144.216 170.8 144.423 168.299 145.132 165.919C144.729 169.116 145.195 172.363 146.479 175.319C147.764 178.275 149.821 180.831 152.433 182.718V182.718Z" fill="#2F2E41"/>
<path d="M223.326 182.738C220.19 177.124 218.99 174.778 214.946 171.364C211.37 168.345 206.972 167.458 203.425 170.319C199.228 168.506 194.559 168.095 190.11 169.147C185.661 170.199 181.67 172.658 178.73 176.159C175.79 179.659 174.057 184.015 173.79 188.579C173.523 193.143 174.734 197.671 177.246 201.491C179.757 205.311 183.433 208.22 187.729 209.784C192.024 211.348 196.71 211.485 201.09 210.175C205.469 208.864 209.309 206.175 212.039 202.508C214.769 198.841 216.244 194.392 216.243 189.82C216.24 189.017 216.192 188.215 216.099 187.418C219.182 186.985 220.242 183.171 223.326 182.738Z" fill="#2F2E41"/>
<path d="M382 517H1C0.734784 517 0.480429 516.895 0.292892 516.707C0.105356 516.52 0 516.265 0 516C0 515.735 0.105356 515.48 0.292892 515.293C0.480429 515.105 0.734784 515 1 515H382C382.265 515 382.52 515.105 382.707 515.293C382.895 515.48 383 515.735 383 516C383 516.265 382.895 516.52 382.707 516.707C382.52 516.895 382.265 517 382 517Z" fill="#CCCCCC"/>
</g>
<defs>
<clipPath id="clip0">
<rect width="766.067" height="517" fill="white"/>
</clipPath>
<clipPath id="clip1">
<rect width="389" height="427" fill="white" transform="translate(377.067)"/>
</clipPath>
</defs>
</svg>
